<svg version="1.1" id="Layer_1" xmlns="http://www.w3.org/2000/svg" xmlns:xlink="http://www.w3.org/1999/xlink" x="0px" y="0px"
	 width="100%" viewBox="0 0 720 1024" enable-background="new 0 0 720 1024" xml:space="preserve">
<path fill="#000000" opacity="1.000000" stroke="none" 
	d="
M111.334503,812.289062 
	C99.793823,829.545715 90.028366,847.384277 82.101257,866.253296 
	C81.645668,866.077759 81.190079,865.902222 80.734489,865.726685 
	C82.501862,854.453064 85.213585,843.228760 85.804611,831.893860 
	C86.596069,816.715088 97.222160,807.455261 105.100082,796.708008 
	C137.900024,751.961243 171.953674,708.160095 206.751816,664.949097 
	C239.034851,624.861267 271.975586,585.316650 305.892914,546.593933 
	C307.644836,544.593811 309.377136,542.576477 311.227631,540.441284 
	C309.540405,537.102539 307.340393,536.430969 305.347229,539.589478 
	C302.608185,543.929932 300.277954,543.278687 297.262970,540.001221 
	C295.360504,537.933044 293.166718,536.037964 290.821991,534.492432 
	C286.764404,531.817749 285.789978,529.039673 289.586029,525.403503 
	C290.278107,524.740540 290.733276,523.830261 291.370483,522.931702 
	C288.431946,518.557617 283.308014,516.817383 280.141510,512.618958 
	C281.795868,508.327240 285.424164,505.506622 288.290741,502.182892 
	C290.274933,499.882324 292.192261,501.847382 293.855255,503.234650 
	C302.165009,510.166656 310.556122,517.005615 318.718842,524.106873 
	C321.609863,526.622009 323.351379,526.646973 326.024017,523.663330 
	C345.918671,501.454132 365.779205,479.207336 386.586182,457.839386 
	C389.029755,455.329895 388.199432,453.172913 387.141968,450.631012 
	C379.852142,433.108063 372.961243,415.445038 367.273621,397.313171 
	C360.983734,377.261353 356.069305,356.904053 353.974854,336.000977 
	C352.716644,323.443787 352.712250,310.770477 354.963104,298.238007 
	C355.493988,295.282074 356.502014,292.535065 358.362274,290.049194 
	C384.008270,255.778244 416.944244,232.755081 459.422455,224.447845 
	C467.156403,222.935364 467.165283,223.038437 467.421265,230.896393 
	C468.077301,251.034912 468.537659,271.183319 469.532104,291.305206 
	C469.832458,297.383301 470.167847,303.517914 470.539856,309.626617 
	C474.572083,310.659271 477.844452,308.848877 481.270416,308.612427 
	C495.306824,307.643707 506.866150,313.371460 517.601868,321.527191 
	C523.846008,326.270782 523.769409,326.201447 529.838928,321.190338 
	C566.911255,290.582642 605.357788,261.980560 648.580750,240.419525 
	C660.665222,234.391388 673.102783,229.183167 685.965332,225.027313 
	C688.523743,224.200714 690.674072,223.649582 691.569214,227.453506 
	C695.251038,243.099533 697.454712,258.837463 695.281677,274.915497 
	C694.266785,282.424561 691.195374,288.304688 684.577515,293.065277 
	C641.846497,323.804291 600.125244,355.898163 558.471008,388.076874 
	C555.514099,390.361145 554.456482,392.829193 554.324219,396.495819 
	C553.481689,419.847809 549.183533,442.448059 538.057678,463.269745 
	C529.854675,478.621460 517.894958,489.644409 500.436646,493.645416 
	C491.687073,495.650543 491.509338,495.601685 493.091614,504.503601 
	C502.858673,559.453308 515.391785,613.687683 536.064819,665.715942 
	C548.483826,696.970947 563.591125,726.777222 585.685242,752.514648 
	C590.016235,757.559875 594.859680,762.177063 599.615845,766.839661 
	C601.547607,768.733337 602.445862,770.724854 602.384155,773.443726 
	C602.243042,779.664062 602.339539,785.889832 601.520630,792.356140 
	C531.270813,701.878906 466.797089,607.889282 413.149750,505.892700 
	C405.809448,512.076904 399.082733,517.719727 392.382233,523.393494 
	C360.602448,550.303467 329.447937,577.932190 298.882965,606.201721 
	C257.772827,644.224548 217.815460,683.424255 180.387360,725.136597 
	C155.663818,752.690063 132.122681,781.165283 111.334503,812.289062 
M496.787048,469.477844 
	C500.474823,468.214661 503.688385,466.155609 506.403870,463.399628 
	C520.157043,449.441437 524.515930,431.453125 528.684570,412.010590 
	C526.223083,413.709747 524.696716,414.635803 523.312195,415.739807 
	C513.952820,423.202576 504.995819,431.242035 495.172241,438.028992 
	C486.553314,443.983704 481.873016,450.485992 486.163025,461.049713 
	C486.461700,461.785248 486.287079,462.701355 486.408630,463.522247 
	C487.585327,471.468048 488.012817,471.738434 496.787048,469.477844 
M543.145630,400.477478 
	C539.486328,401.984802 538.897339,405.310974 538.378418,408.633179 
	C536.447510,420.995911 533.832336,433.245514 528.901489,444.744476 
	C521.346924,462.361847 511.980286,478.388336 489.866638,479.958496 
	C489.129364,485.382660 489.827240,486.104523 494.728302,485.470917 
	C507.599518,483.806824 517.361572,476.987793 524.872192,466.833771 
	C537.687500,449.507904 541.706238,429.095551 544.524231,408.383911 
	C544.870178,405.841339 547.024231,402.643860 543.145630,400.477478 
M482.332520,362.803375 
	C488.723022,356.956909 495.081757,351.075012 501.526031,345.288452 
	C503.177307,343.805664 504.702576,342.398041 502.393860,340.480835 
	C496.910248,335.927155 490.941833,332.286743 483.442474,332.815277 
	C476.065216,333.335236 472.767944,337.185944 473.194092,344.424347 
	C473.546295,350.405945 473.977417,356.382843 474.351013,362.363220 
	C474.466583,364.213226 474.592682,366.026276 476.671875,367.026947 
	C478.850708,366.443542 480.251678,364.740875 482.332520,362.803375 
M501.113373,328.205231 
	C503.660004,330.070435 506.294189,331.828857 508.731689,333.827209 
	C511.953552,336.468658 513.948608,335.619537 515.497009,331.938354 
	C509.022919,325.600861 501.567413,321.230133 493.176605,318.832214 
	C487.239349,317.135529 481.012634,317.128082 475.000305,319.243866 
	C471.294678,320.547913 470.345673,322.679047 473.187225,326.239838 
	C482.461761,322.578308 491.636108,322.816895 501.113373,328.205231 
M298.997406,531.420715 
	C299.575684,531.120178 300.413513,530.971741 300.692413,530.495789 
	C303.746002,525.284668 306.887085,526.906433 310.511963,529.969421 
	C312.385437,531.552429 313.788879,534.674255 317.330933,533.590393 
	C315.402374,528.743103 296.074036,512.923279 291.714600,512.664612 
	C293.805878,515.954712 296.974640,517.828125 299.763916,520.066650 
	C302.632935,522.369141 303.468262,524.531250 300.302979,527.317932 
	C299.249695,528.245178 297.190277,529.105042 298.997406,531.420715 
z"/>
<path fill="#000000" opacity="1.000000" stroke="none" 
	d="
M574.083252,833.056885 
	C573.906677,829.676575 574.490234,826.747864 572.146606,824.122986 
	C570.528320,822.310303 572.178833,821.051025 574.108093,820.846558 
	C578.780518,820.351318 583.462097,820.549194 587.855286,822.305481 
	C591.886292,823.916931 593.259460,829.475037 590.773376,833.366272 
	C590.069397,834.468140 589.066284,835.378967 588.008240,836.598938 
	C590.381897,839.677368 590.355103,844.621582 595.052124,845.580688 
	C596.391968,844.982666 596.577820,844.190063 596.665222,843.340576 
	C596.790405,842.124451 597.035706,840.993225 598.578003,840.893005 
	C599.993958,840.800903 600.758728,841.668213 601.091003,842.864197 
	C601.823975,845.502014 603.579590,846.239563 606.045837,845.650818 
	C607.778931,845.236938 609.176880,844.218567 609.427856,842.388428 
	C609.770081,839.892822 607.787903,839.015076 605.987976,838.090942 
	C604.805237,837.483765 603.593140,836.914612 602.478394,836.197571 
	C597.588379,833.052002 596.353088,829.110474 598.861145,824.848450 
	C601.086914,821.066162 608.535522,819.039307 612.238953,821.324341 
	C615.045410,823.055969 614.325012,825.946106 614.174316,828.525146 
	C614.120850,829.439453 613.038574,829.661987 612.196411,829.671387 
	C610.885376,829.686096 609.940735,829.108582 609.759766,827.703186 
	C609.484985,825.569153 608.128174,824.978760 606.218994,825.169189 
	C604.551697,825.335510 603.346741,826.226746 603.024414,827.854492 
	C602.620544,829.893921 604.214966,830.793213 605.657776,831.631592 
	C607.094360,832.466248 608.578430,833.226013 610.076111,833.947266 
	C613.395386,835.545654 615.374695,838.071411 614.991333,841.835266 
	C614.581055,845.863342 612.196716,848.448364 608.351440,849.732056 
	C605.906311,850.548218 603.434265,850.424133 600.950500,850.103882 
	C600.298889,850.019897 599.679077,849.714661 599.032410,849.563538 
	C592.653992,848.072327 588.353394,845.418213 583.713745,840.118958 
	C582.819580,839.097717 581.850037,838.187866 579.986389,838.842712 
	C578.399475,842.245483 579.143982,845.258362 582.986938,847.719360 
	C578.726196,850.172607 575.333862,849.505127 570.901611,848.565308 
	C576.085571,843.974243 573.703369,838.546753 574.083252,833.056885 
M585.415405,831.974304 
	C587.394226,829.633545 586.571045,827.743225 584.388123,826.184265 
	C583.151062,825.300842 581.244446,824.460510 580.365051,825.738647 
	C578.523865,828.414795 578.878540,831.456482 580.305359,834.472534 
	C582.178162,834.148438 583.709961,833.699951 585.415405,831.974304 
z"/>
<path fill="#000000" opacity="1.000000" stroke="none" 
	d="
M407.307190,849.342163 
	C405.052307,849.191467 404.028229,848.451782 404.846954,846.435852 
	C407.876434,838.976868 407.886169,831.515076 404.877747,824.052307 
	C403.955536,821.764709 405.202820,820.980713 407.164764,820.794861 
	C411.514343,820.382874 415.865997,820.601929 419.994995,822.010254 
	C424.344574,823.493774 426.069855,828.525085 423.972015,832.696472 
	C421.135742,838.336121 422.049835,841.946594 427.399902,845.776794 
	C428.293732,846.416687 428.926819,847.016235 428.775635,848.167603 
	C424.008392,850.495422 422.037964,849.872864 419.595428,845.642517 
	C418.038940,842.946838 417.678406,839.069824 413.429169,838.569946 
	C410.554718,842.710999 413.741852,845.253235 415.982666,848.109497 
	C413.264893,850.401611 410.338470,848.936646 407.307190,849.342163 
M413.242310,825.936035 
	C411.922729,828.760742 411.873688,831.537415 413.311584,834.362488 
	C416.717590,833.898865 419.051086,832.617188 418.742432,828.979553 
	C418.495697,826.071350 416.686768,824.990417 413.242310,825.936035 
z"/>
<path fill="#000000" opacity="1.000000" stroke="none" 
	d="
M300.959503,822.634766 
	C303.945557,819.279724 307.572632,820.981995 310.889374,820.903809 
	C312.483002,820.866211 313.341461,822.573120 312.323242,823.779358 
	C309.842804,826.718079 312.073608,828.111389 313.669769,829.944580 
	C315.664856,828.946960 316.231842,827.157715 317.148621,825.612061 
	C316.911194,824.190552 314.303680,823.925110 315.339905,821.983582 
	C316.230713,820.314331 317.912048,820.754089 319.349854,820.703369 
	C320.842438,820.650635 322.375824,820.556885 323.827759,820.825256 
	C326.154449,821.255371 326.375000,822.635559 324.990967,824.395813 
	C315.793213,836.094666 315.795776,836.090088 325.713196,846.669434 
	C326.013977,846.990295 326.046051,847.563110 326.413147,848.625305 
	C322.669891,849.973389 319.119629,849.534973 314.871338,848.660583 
	C317.816254,844.953186 315.635254,842.536438 313.173981,839.807373 
	C310.482422,842.138977 308.497131,844.441772 311.247711,848.339844 
	C307.278320,849.977295 303.759949,849.706787 299.533142,848.394409 
	C301.741302,845.997742 303.708466,844.150879 305.336578,842.042236 
	C310.468689,835.395264 309.689758,830.338989 302.856354,825.152588 
	C302.064667,824.551758 301.112061,824.164490 300.959503,822.634766 
z"/>
<path fill="#000000" opacity="1.000000" stroke="none" 
	d="
M396.511841,823.308594 
	C403.506927,832.302551 402.286011,844.070007 394.226624,848.428528 
	C388.394073,851.582764 381.350555,850.722229 377.168335,846.344482 
	C372.854370,841.828857 372.242065,832.381104 375.899048,826.760803 
	C379.294830,821.541931 386.438629,819.167053 392.670166,821.273987 
	C393.911316,821.693604 395.037689,822.452576 396.511841,823.308594 
M393.805267,841.985046 
	C395.568329,838.360046 395.122803,834.502319 394.539825,830.796814 
	C393.874634,826.568481 390.990021,824.672241 386.672302,825.076477 
	C381.465729,825.563965 378.686249,830.106262 379.269897,837.075500 
	C379.581970,840.802002 380.966095,843.897095 384.583435,845.334045 
	C388.087524,846.725952 391.043732,845.516907 393.805267,841.985046 
z"/>
<path fill="#000000" opacity="1.000000" stroke="none" 
	d="
M541.421875,840.986938 
	C539.076355,828.865723 544.782532,820.650269 555.120972,820.676025 
	C562.175110,820.693604 566.923218,824.851318 568.048340,831.996033 
	C569.275940,839.791687 565.656677,847.051819 559.413818,849.316528 
	C552.326416,851.887573 545.896484,849.593079 542.350342,843.209167 
	C542.029297,842.631226 541.817993,841.992310 541.421875,840.986938 
M561.578796,830.074219 
	C557.752808,823.886719 551.559814,823.199280 548.185852,828.686096 
	C545.870361,832.451660 545.586670,836.538513 547.243164,840.651123 
	C548.528564,843.842468 550.796509,845.929993 554.434326,845.839661 
	C558.237183,845.745300 560.483215,843.627747 561.690674,840.070190 
	C562.748230,836.954224 563.084534,833.922668 561.578796,830.074219 
z"/>
<path fill="#000000" opacity="1.000000" stroke="none" 
	d="
M443.818268,849.377930 
	C438.989105,849.014099 434.489319,850.242188 430.201660,848.499512 
	C432.568146,840.139465 433.558411,832.114380 430.325684,824.079773 
	C429.463501,821.936890 430.392517,820.826233 432.525024,820.787231 
	C437.021484,820.704895 441.528595,820.592468 446.015228,820.815796 
	C448.694458,820.949097 450.771271,826.396179 448.886749,828.240540 
	C447.033173,830.054688 445.591339,828.992249 444.684906,826.970337 
	C443.684204,824.738281 441.755005,824.898987 439.992340,825.394043 
	C437.834167,826.000122 438.329254,828.027527 438.355835,829.618225 
	C438.408691,832.781372 440.057648,833.478271 442.527649,831.797241 
	C443.734497,830.975891 444.573792,829.287048 446.282471,830.365845 
	C447.782471,831.313049 447.203400,833.072388 447.288757,834.511658 
	C447.357513,835.670959 447.380463,836.865051 447.181488,838.001343 
	C446.783386,840.274902 445.338806,840.836365 443.655212,839.377319 
	C442.082458,838.014282 440.427368,836.030457 438.851532,838.486267 
	C437.694031,840.290100 437.325226,843.336182 439.208374,844.984924 
	C440.834625,846.408630 443.380005,846.152588 445.129913,844.451111 
	C446.323669,843.290283 446.439880,840.650940 449.043091,841.617432 
	C450.681519,842.225708 450.369995,843.770630 450.120789,845.061157 
	C449.662506,847.434509 449.024780,849.723022 445.794312,849.371765 
	C445.300812,849.318115 444.795502,849.373169 443.818268,849.377930 
z"/>
<path fill="#000000" opacity="1.000000" stroke="none" 
	d="
M496.258789,842.502747 
	C500.034363,847.026550 504.747772,846.792053 505.705841,841.926331 
	C506.861328,836.058105 509.060577,829.658325 504.095520,824.155334 
	C503.788391,823.814819 503.560760,823.299255 503.518768,822.844604 
	C503.434418,821.931091 503.870667,821.106995 504.789642,820.982971 
	C507.582520,820.605957 510.437103,820.194031 513.128967,821.335815 
	C514.170410,821.777527 514.373840,823.154175 513.665833,823.912903 
	C509.805939,828.049561 511.805023,833.116943 511.504944,837.727234 
	C510.963867,846.040039 507.562866,850.287109 500.503448,850.317627 
	C494.524445,850.343445 490.656219,846.698608 489.880341,840.607788 
	C489.142578,834.816101 491.645721,828.633301 487.703949,823.186218 
	C487.183807,822.467407 487.884247,821.115295 489.068817,820.951782 
	C491.871063,820.565002 494.738800,820.278381 497.477234,821.114685 
	C498.910065,821.552124 499.814911,823.459656 498.370453,824.143066 
	C493.943085,826.237854 495.474457,830.000061 495.349426,833.241516 
	C495.234985,836.207825 494.891022,839.252563 496.258789,842.502747 
z"/>
<path fill="#000000" opacity="1.000000" stroke="none" 
	d="
M348.280701,829.142212 
	C348.477295,834.162781 346.188507,837.117554 342.033997,838.716736 
	C334.464233,841.630493 334.323212,842.119690 340.383636,848.308350 
	C336.136047,850.062866 332.247192,849.339661 327.500732,849.004944 
	C332.136658,843.117310 330.369934,836.905884 330.635895,830.979126 
	C330.743378,828.584290 331.262634,826.020386 328.439514,824.347778 
	C327.094513,823.550964 327.333710,822.008728 328.800446,821.109985 
	C334.284332,817.749634 346.587952,822.575195 348.280701,829.142212 
M336.807861,834.872620 
	C339.655762,835.928711 341.176117,834.015625 342.327820,832.055908 
	C343.307495,830.389038 342.932922,828.513428 341.478241,827.071777 
	C340.402802,826.005920 339.112366,824.936890 337.558868,825.534180 
	C335.582611,826.294128 336.123260,828.290466 336.082916,829.858643 
	C336.045135,831.326599 336.283600,832.801697 336.807861,834.872620 
z"/>
<path fill="#000000" opacity="1.000000" stroke="none" 
	d="
M518.195801,829.200684 
	C515.240479,829.933105 514.437805,828.448364 514.772644,826.290222 
	C515.131653,823.976379 514.829346,820.871399 518.420837,820.787842 
	C524.234070,820.652527 530.052368,820.732605 535.868530,820.732666 
	C537.565430,820.732727 538.827087,821.392334 538.967407,823.241516 
	C539.115723,825.195923 539.793335,827.496460 538.125977,828.910278 
	C536.456665,830.325562 535.097107,829.396484 534.541870,827.309387 
	C534.212891,826.072876 533.399109,825.260864 532.013794,825.397888 
	C530.530640,825.544495 530.127502,826.688843 530.122681,827.903259 
	C530.102173,833.052795 530.215027,838.203186 530.157837,843.351990 
	C530.134155,845.482300 532.919861,845.780579 532.816895,848.569824 
	C529.091370,849.986206 525.222046,849.553345 520.511658,848.660767 
	C525.832336,843.035889 523.547241,836.586304 523.971069,830.565063 
	C524.091553,828.854248 524.661438,826.445251 522.604736,825.646423 
	C519.775024,824.547363 520.145264,828.168091 518.195801,829.200684 
z"/>
<path fill="#000000" opacity="1.000000" stroke="none" 
	d="
M480.835846,820.686890 
	C484.952942,820.265137 486.623322,821.841919 486.231079,825.519958 
	C486.079132,826.945129 486.555573,828.695496 484.643555,829.303528 
	C482.746063,829.906982 481.972931,828.786987 481.514801,827.107117 
	C481.172668,825.852356 480.214386,825.182129 478.854065,825.452087 
	C477.665710,825.687805 477.305664,826.654297 477.302673,827.692993 
	C477.287354,833.006470 477.335144,838.320190 477.332367,843.633789 
	C477.331360,845.543884 479.886017,845.778625 479.943634,848.424377 
	C476.113495,850.144287 472.191376,849.512268 467.237152,848.618774 
	C473.834320,842.030090 470.995239,834.627991 471.279480,827.690918 
	C471.322144,826.649902 471.182465,825.601440 470.006805,825.286499 
	C468.710388,824.939148 467.746887,825.475159 467.271881,826.779785 
	C466.594299,828.640930 465.641724,830.262817 463.302246,829.320190 
	C461.548889,828.613770 461.644409,826.849365 462.001312,825.439575 
	C462.491547,823.503113 462.286255,820.805786 465.406860,820.765686 
	C470.389465,820.701660 475.372986,820.708984 480.835846,820.686890 
z"/>
<path fill="#000000" opacity="1.000000" stroke="none" 
	d="
M369.956177,848.651489 
	C363.528290,849.748352 357.365143,849.555054 350.217621,848.916870 
	C355.826172,842.125061 353.024750,835.001648 353.647034,828.294922 
	C353.706360,827.655762 353.580231,826.951538 353.359375,826.343201 
	C352.744446,824.649414 348.735229,823.137573 352.018616,821.367981 
	C354.917633,819.805542 358.825775,819.955078 362.092255,821.565491 
	C363.271973,822.147156 363.169006,823.522766 362.131989,824.518738 
	C356.081757,830.329468 359.826019,837.564331 359.774109,844.066528 
	C359.752625,846.757080 363.810638,846.123657 365.875671,844.630493 
	C367.504913,843.452454 367.643494,839.192871 370.638184,841.200928 
	C373.312073,842.993835 370.836945,845.940002 369.956177,848.651489 
z"/>
</svg>